<svg width="25" height="24" viewBox="0 0 25 24" fill="none" xmlns="http://www.w3.org/2000/svg">
<rect x="1.75" y="1" width="22" height="22" rx="11" stroke="#FDF744" stroke-width="2"/>
<path d="M12.8737 18.192C12.0203 18.192 11.2257 18.0373 10.4897 17.728C9.76433 17.4187 9.12967 16.9867 8.58567 16.432C8.04167 15.8773 7.615 15.2267 7.30567 14.48C7.007 13.7333 6.85767 12.9173 6.85767 12.032C6.85767 11.1467 7.007 10.3307 7.30567 9.584C7.60433 8.82667 8.02567 8.176 8.56967 7.632C9.11367 7.07733 9.74833 6.65067 10.4737 6.352C11.2097 6.04267 12.0097 5.888 12.8737 5.888C13.7377 5.888 14.511 6.032 15.1937 6.32C15.887 6.608 16.4737 6.992 16.9537 7.472C17.4337 7.952 17.775 8.48533 17.9777 9.072L15.7857 10.128C15.583 9.552 15.2257 9.07733 14.7137 8.704C14.2123 8.32 13.599 8.128 12.8737 8.128C12.1697 8.128 11.551 8.29333 11.0177 8.624C10.4843 8.95467 10.0683 9.41333 9.76967 10C9.48167 10.576 9.33767 11.2533 9.33767 12.032C9.33767 12.8107 9.48167 13.4933 9.76967 14.08C10.0683 14.6667 10.4843 15.1253 11.0177 15.456C11.551 15.7867 12.1697 15.952 12.8737 15.952C13.599 15.952 14.2123 15.7653 14.7137 15.392C15.2257 15.008 15.583 14.528 15.7857 13.952L17.9777 15.008C17.775 15.5947 17.4337 16.128 16.9537 16.608C16.4737 17.088 15.887 17.472 15.1937 17.76C14.511 18.048 13.7377 18.192 12.8737 18.192Z" fill="#FDF744"/>
</svg>
